<svg width="266" height="32" viewBox="0 0 266 32" fill="none" xmlns="http://www.w3.org/2000/svg">
<path fill-rule="evenodd" clip-rule="evenodd" d="M60.7471 4.18347C62.7804 4.18347 64.8899 4.80555 66.6221 6.04907L65.3036 7.76427C63.8917 6.78443 62.7056 6.23787 60.9165 6.23787C57.8095 6.23787 55.3797 8.17899 55.3797 11.0065C55.3797 13.8334 57.8095 15.7745 60.9165 15.7745C62.7996 15.7745 64.042 15.1902 65.5485 14.1726L66.867 15.8878C65.097 17.1505 62.8751 17.8296 60.7471 17.8296C56.4725 17.8296 52.4429 15.3035 52.4429 10.9873C52.4429 6.67115 56.4725 4.18347 60.7471 4.18347Z" fill="#5E6A71"/>
<path fill-rule="evenodd" clip-rule="evenodd" d="M76.8264 10.9496C78.8227 10.9496 80.1028 10.1201 80.1028 8.68782C80.1028 7.29326 78.879 6.52014 76.8079 6.52014H72.7213V10.9496H76.8264ZM69.897 4.40942H77.0336C80.3477 4.40942 83.0403 5.74766 83.0403 8.65006C83.0403 10.9118 81.3829 12.099 79.1424 12.6078L83.4547 17.603H80.1591L76.2426 13.004H72.7213V17.603H69.897V4.40942Z" fill="#5E6A71"/>
<mask id="mask0_1882_7835" style="mask-type:alpha" maskUnits="userSpaceOnUse" x="86" y="0" width="13" height="18">
<path fill-rule="evenodd" clip-rule="evenodd" d="M86.3906 0.640259H98.5927V17.6031H86.3906V0.640259Z" fill="white"/>
</mask>
<g mask="url(#mask0_1882_7835)">
<path fill-rule="evenodd" clip-rule="evenodd" d="M95.4858 0.639893L93.3015 2.95797H90.8909L92.5483 0.639893H95.4858ZM86.3906 13.7957V4.40949H98.3293V6.52021H89.215V9.70549H97.5761V11.7599H89.215V13.7957C89.215 14.9452 89.761 15.4917 90.8723 15.4917H98.5927V17.6031H90.1946C87.7839 17.6031 86.3906 16.1893 86.3906 13.7957Z" fill="#5E6A71"/>
</g>
<path fill-rule="evenodd" clip-rule="evenodd" d="M108.326 15.4918C111.527 15.4918 113.674 13.7011 113.674 11.0252C113.674 8.32955 111.527 6.52027 108.326 6.52027H105.012V15.4918H108.326ZM102.187 4.40955H108.138C113.222 4.40955 116.612 7.04827 116.612 11.006C116.612 14.9638 113.222 17.6031 108.138 17.6031H102.187V4.40955Z" fill="#5E6A71"/>
<mask id="mask1_1882_7835" style="mask-type:alpha" maskUnits="userSpaceOnUse" x="0" y="0" width="266" height="32">
<path fill-rule="evenodd" clip-rule="evenodd" d="M0 31.6054H265.521V0.640259H0V31.6054Z" fill="white"/>
</mask>
<g mask="url(#mask1_1882_7835)">
<path fill-rule="evenodd" clip-rule="evenodd" d="M119.829 17.6028H122.653V4.40918H119.829V17.6028Z" fill="#5E6A71"/>
<path fill-rule="evenodd" clip-rule="evenodd" d="M125.685 6.52027V4.40955H138.641V6.52027H133.574V17.6031H130.75V6.52027H125.685Z" fill="#5E6A71"/>
<path fill-rule="evenodd" clip-rule="evenodd" d="M155.397 12.3631L152.799 7.12342L150.2 12.3631H155.397ZM156.433 14.4175H149.164L147.582 17.6034H144.701L151.537 4.40918H154.418L161.253 17.6034H158.015L156.433 14.4175Z" fill="#5E6A71"/>
<path fill-rule="evenodd" clip-rule="evenodd" d="M170.61 4.18347C172.644 4.18347 174.753 4.80555 176.485 6.04907L175.168 7.76427C173.755 6.78443 172.569 6.23787 170.78 6.23787C167.673 6.23787 165.244 8.14123 165.244 10.9688C165.244 13.7579 167.409 15.7745 170.686 15.7745C172.136 15.7745 173.473 15.379 174.414 14.7569V12.2315H170.441V10.2148H177.239V15.756C175.657 16.8868 173.417 17.8296 170.573 17.8296C165.602 17.8296 162.306 14.8888 162.306 10.9873C162.306 6.67115 166.336 4.18347 170.61 4.18347Z" fill="#5E6A71"/>
<path fill-rule="evenodd" clip-rule="evenodd" d="M187.952 10.9496C189.947 10.9496 191.228 10.1201 191.228 8.68782C191.228 7.29326 190.004 6.52014 187.933 6.52014H183.846V10.9496H187.952ZM181.021 4.40942H188.159C191.473 4.40942 194.165 5.74766 194.165 8.65006C194.165 10.9118 192.509 12.099 190.268 12.6078L194.58 17.603H191.285L187.368 13.004H183.846V17.603H181.021V4.40942Z" fill="#5E6A71"/>
<path fill-rule="evenodd" clip-rule="evenodd" d="M197.986 17.6028H200.811V4.40918H197.986V17.6028Z" fill="#5E6A71"/>
<path fill-rule="evenodd" clip-rule="evenodd" d="M212.522 4.18347C214.556 4.18347 216.665 4.80555 218.397 6.04907L217.08 7.76427C215.667 6.78443 214.481 6.23787 212.693 6.23787C209.585 6.23787 207.156 8.17899 207.156 11.0065C207.156 13.8334 209.585 15.7745 212.693 15.7745C214.575 15.7745 215.818 15.1902 217.325 14.1726L218.642 15.8878C216.872 17.1505 214.65 17.8296 212.522 17.8296C208.248 17.8296 204.218 15.3035 204.218 10.9873C204.218 6.67115 208.248 4.18347 212.522 4.18347Z" fill="#5E6A71"/>
<path fill-rule="evenodd" clip-rule="evenodd" d="M222.821 11.0063C222.821 13.6635 225.024 15.7749 228.226 15.7749C231.427 15.7749 233.63 13.6635 233.63 11.0063C233.63 8.34899 231.427 6.23763 228.226 6.23763C225.024 6.23763 222.821 8.34899 222.821 11.0063ZM219.883 11.0063C219.883 7.27443 223.348 4.18323 228.226 4.18323C233.103 4.18323 236.568 7.27443 236.568 11.0063C236.568 14.7381 233.103 17.8293 228.226 17.8293C223.348 17.8293 219.883 14.7381 219.883 11.0063Z" fill="#5E6A71"/>
<path fill-rule="evenodd" clip-rule="evenodd" d="M239.409 4.4093H242.234V15.4915H250.613V17.6029H239.409V4.4093Z" fill="#5E6A71"/>
<path fill-rule="evenodd" clip-rule="evenodd" d="M252.607 13.7955V4.4093H264.546V6.52002H255.432V9.7053H263.793V11.7597H255.432V13.7955C255.432 14.945 255.978 15.4915 257.089 15.4915H264.81V17.6029H256.411C254.001 17.6029 252.607 16.1891 252.607 13.7955Z" fill="#5E6A71"/>
<path fill-rule="evenodd" clip-rule="evenodd" d="M57.4572 23.9832C58.5787 23.9832 59.7412 24.3294 60.6965 25.0225L59.9695 25.9774C59.1907 25.4321 58.5365 25.1275 57.5505 25.1275C55.8375 25.1275 54.4986 26.2091 54.4986 27.7835C54.4986 29.3585 55.8375 30.4401 57.5505 30.4401C58.589 30.4401 59.2744 30.1144 60.105 29.5473L60.8314 30.5035C59.855 31.2068 58.6305 31.5844 57.4572 31.5844C55.1003 31.5844 52.8789 30.1777 52.8789 27.7732C52.8789 25.3688 55.1003 23.9832 57.4572 23.9832Z" fill="#5E6A71"/>
<path fill-rule="evenodd" clip-rule="evenodd" d="M62.9717 27.7837C62.9717 29.264 64.186 30.4397 65.9514 30.4397C67.7162 30.4397 68.9305 29.264 68.9305 27.7837C68.9305 26.3034 67.7162 25.1277 65.9514 25.1277C64.186 25.1277 62.9717 26.3034 62.9717 27.7837ZM61.3521 27.7837C61.3521 25.705 63.2626 23.9834 65.9514 23.9834C68.6402 23.9834 70.5508 25.705 70.5508 27.7837C70.5508 29.8624 68.6402 31.584 65.9514 31.584C63.2626 31.584 61.3521 29.8624 61.3521 27.7837Z" fill="#5E6A71"/>
<path fill-rule="evenodd" clip-rule="evenodd" d="M75.6702 27.7524C76.7706 27.7524 77.4765 27.2897 77.4765 26.4922C77.4765 25.7146 76.8019 25.2852 75.6599 25.2852H73.4066V27.7524H75.6702ZM71.8496 24.1089H75.784C77.6114 24.1089 79.0962 24.8545 79.0962 26.4711C79.0962 27.7313 78.1825 28.3924 76.9471 28.6759L79.3245 31.4586H77.5079L75.3485 28.8967H73.4066V31.4586H71.8496V24.1089Z" fill="#5E6A71"/>
<path fill-rule="evenodd" clip-rule="evenodd" d="M84.7557 28.0674C85.8664 28.0674 86.5832 27.542 86.5832 26.6492C86.5832 25.7788 85.8977 25.2847 84.7454 25.2847H82.3885V28.0674H84.7557ZM80.8315 24.1084H84.8075C86.6759 24.1084 88.2022 24.9167 88.2022 26.6492C88.2022 28.3714 86.697 29.2431 84.8075 29.2431H82.3885V31.4588H80.8315V24.1084Z" fill="#5E6A71"/>
<path fill-rule="evenodd" clip-rule="evenodd" d="M90.3423 27.7837C90.3423 29.264 91.5566 30.4397 93.322 30.4397C95.0868 30.4397 96.3011 29.264 96.3011 27.7837C96.3011 26.3034 95.0868 25.1277 93.322 25.1277C91.5566 25.1277 90.3423 26.3034 90.3423 27.7837ZM88.7227 27.7837C88.7227 25.705 90.6333 23.9834 93.322 23.9834C96.0108 23.9834 97.9208 25.705 97.9208 27.7837C97.9208 29.8624 96.0108 31.584 93.322 31.584C90.6333 31.584 88.7227 29.8624 88.7227 27.7837Z" fill="#5E6A71"/>
<path fill-rule="evenodd" clip-rule="evenodd" d="M103.145 27.7524C104.245 27.7524 104.951 27.2897 104.951 26.4922C104.951 25.7146 104.277 25.2852 103.135 25.2852H100.881V27.7524H103.145ZM99.3242 24.1089H103.259C105.086 24.1089 106.571 24.8545 106.571 26.4711C106.571 27.7313 105.657 28.3924 104.422 28.6759L106.799 31.4586H104.982L102.823 28.8967H100.881V31.4586H99.3242V24.1089Z" fill="#5E6A71"/>
<path fill-rule="evenodd" clip-rule="evenodd" d="M113.113 28.5394L111.68 25.6203L110.247 28.5394H113.113ZM113.684 29.6837H109.676L108.805 31.459H107.216L110.985 24.1086H112.573L116.342 31.459H114.556L113.684 29.6837Z" fill="#5E6A71"/>
<path fill-rule="evenodd" clip-rule="evenodd" d="M115.72 25.285V24.1086H122.862V25.285H120.07V31.4584H118.513V25.285H115.72Z" fill="#5E6A71"/>
<path fill-rule="evenodd" clip-rule="evenodd" d="M124.109 29.3374V24.1086H130.692V25.285H125.667V27.0584H130.277V28.204H125.667V29.3374C125.667 29.9781 125.968 30.2827 126.581 30.2827H130.837V31.4584H126.207C124.878 31.4584 124.109 30.6712 124.109 29.3374Z" fill="#5E6A71"/>
<path fill-rule="evenodd" clip-rule="evenodd" d="M138.396 25.8518V25.8307C138.396 25.3366 138.054 25.0013 137.566 25.0013C137.047 25.0013 136.704 25.3686 136.704 25.8832V25.9043C136.704 26.2717 136.849 26.545 137.254 26.9962C138.002 26.7229 138.396 26.3766 138.396 25.8518ZM138.438 29.8518L136.818 28.1827C136.144 28.4771 135.853 28.9283 135.853 29.4006V29.4218C135.853 30.0413 136.362 30.4925 137.067 30.4925C137.566 30.4925 138.023 30.2512 138.438 29.8518ZM139.165 30.6083C138.542 31.1965 137.815 31.5638 136.933 31.5638C135.583 31.5638 134.565 30.7344 134.565 29.464V29.4422C134.565 28.4982 135.116 27.8154 136.113 27.3846C135.697 26.8496 135.51 26.3869 135.51 25.8518V25.8307C135.51 24.8438 136.3 23.983 137.597 23.983C138.749 23.983 139.529 24.7709 139.529 25.7578V25.7789C139.529 26.7446 138.895 27.3219 137.929 27.6893L139.175 28.9706C139.455 28.5501 139.715 28.0675 139.954 27.5523L140.919 28.0675C140.628 28.6557 140.307 29.233 139.933 29.7469L141.075 30.9232L140.13 31.6054L139.165 30.6083Z" fill="#5E6A71"/>
<path fill-rule="evenodd" clip-rule="evenodd" d="M145.177 31.4582H146.735V24.1084H145.177V31.4582Z" fill="#5E6A71"/>
<path fill-rule="evenodd" clip-rule="evenodd" d="M150.473 26.2194V31.459H148.916V24.1086H150.473L154.927 29.3374V24.1086H156.484V31.459H154.927L150.473 26.2194Z" fill="#5E6A71"/>
<path fill-rule="evenodd" clip-rule="evenodd" d="M166.39 24.1088L162.777 31.4585H161.188L157.575 24.1088H159.361L162.081 29.9148L164.801 24.1088H166.39Z" fill="#5E6A71"/>
<path fill-rule="evenodd" clip-rule="evenodd" d="M167.221 29.3374V24.1086H173.804V25.285H168.778V27.0584H173.388V28.204H168.778V29.3374C168.778 29.9781 169.08 30.2827 169.692 30.2827H173.948V31.4584H169.318C167.989 31.4584 167.221 30.6712 167.221 29.3374Z" fill="#5E6A71"/>
<path fill-rule="evenodd" clip-rule="evenodd" d="M175.093 30.4188L175.82 29.3589C176.764 30.0623 178.052 30.3874 179.162 30.3874C180.315 30.3874 181.26 30.0412 181.26 29.4952C181.26 28.9282 180.211 28.7074 179.007 28.445C177.345 28.0879 175.373 27.668 175.373 26.198C175.373 24.8328 177.055 23.9829 178.975 23.9829C180.294 23.9829 181.675 24.3605 182.672 25.0434L181.945 26.1039C181.124 25.4735 180.024 25.1586 179.007 25.1586C177.968 25.1586 176.971 25.4844 176.971 26.0092C176.971 26.5032 177.927 26.7023 179.069 26.9333C180.761 27.2802 182.859 27.7103 182.859 29.3064C182.859 30.7548 181.135 31.5842 179.183 31.5842C177.678 31.5842 176.162 31.133 175.093 30.4188Z" fill="#5E6A71"/>
<path fill-rule="evenodd" clip-rule="evenodd" d="M183.534 25.285V24.1086H190.677V25.285H187.884V31.4584H186.327V25.285H183.534Z" fill="#5E6A71"/>
<path fill-rule="evenodd" clip-rule="evenodd" d="M198.807 24.1088H200.468V31.4585H198.911V25.9776L196.024 30.0832L193.222 26.1036V31.4585H191.872V24.1088H193.533L196.17 27.847L198.807 24.1088Z" fill="#5E6A71"/>
<path fill-rule="evenodd" clip-rule="evenodd" d="M202.286 29.3374V24.1086H208.868V25.285H203.844V27.0584H208.453V28.204H203.844V29.3374C203.844 29.9781 204.145 30.2827 204.758 30.2827H209.014V31.4584H204.383C203.055 31.4584 202.286 30.6712 202.286 29.3374Z" fill="#5E6A71"/>
<path fill-rule="evenodd" clip-rule="evenodd" d="M212.286 26.2194V31.459H210.729V24.1086H212.286L216.74 29.3374V24.1086H218.297V31.459H216.74L212.286 26.2194Z" fill="#5E6A71"/>
<path fill-rule="evenodd" clip-rule="evenodd" d="M219.492 25.285V24.1086H226.635V25.285H223.842V31.4584H222.285V25.285H219.492Z" fill="#5E6A71"/>
<path fill-rule="evenodd" clip-rule="evenodd" d="M236.655 29.285C236.655 28.6654 236.095 28.3192 235.181 28.3192H232.295V30.2827H235.171C236.095 30.2827 236.655 29.9147 236.655 29.285ZM232.295 25.285V27.1749H234.869C235.784 27.1749 236.365 26.828 236.365 26.2194C236.365 25.6312 235.803 25.285 234.859 25.285H232.295ZM238.306 29.4008C238.306 30.7442 236.977 31.4584 235.295 31.4584H230.737V24.1086H234.984C236.645 24.1086 237.974 24.7915 237.974 26.1144C237.974 26.86 237.538 27.3842 236.853 27.6894C237.724 27.9518 238.306 28.508 238.306 29.4008Z" fill="#5E6A71"/>
<path fill-rule="evenodd" clip-rule="evenodd" d="M244.412 28.5394L242.98 25.6203L241.547 28.5394H244.412ZM244.983 29.6837H240.975L240.103 31.459H238.515L242.283 24.1086H243.872L247.64 31.459H245.855L244.983 29.6837Z" fill="#5E6A71"/>
<path fill-rule="evenodd" clip-rule="evenodd" d="M249.874 26.2194V31.459H248.316V24.1086H249.874L254.328 29.3374V24.1086H255.885V31.459H254.328L249.874 26.2194Z" fill="#5E6A71"/>
<path fill-rule="evenodd" clip-rule="evenodd" d="M260.673 28.0356L259.416 29.1389V31.4589H257.859V24.1085H259.416V27.6477L263.31 24.1085H265.126L261.752 27.0807L265.521 31.4589H263.61L260.673 28.0356Z" fill="#5E6A71"/>
<path fill-rule="evenodd" clip-rule="evenodd" d="M29.7188 20.8425L34.5502 18.2524L38.1419 25.7225H32.7989C32.7989 25.7264 31.7707 25.7264 31.3595 24.799C30.9765 23.7731 29.7277 20.8438 29.7188 20.8425Z" fill="#5E6A71"/>
<path fill-rule="evenodd" clip-rule="evenodd" d="M0.430176 31.5881H39.2886V28.1072H0.430176V31.5881Z" fill="#5E6A71"/>
<path fill-rule="evenodd" clip-rule="evenodd" d="M42.1724 6.07683C42.1641 6.07555 36.0582 9.58724 34.6278 10.121C33.3132 10.6413 32.8195 9.95396 32.6616 9.71332C32.3086 9.17316 31.7293 7.39204 31.6475 7.12387C31.6826 7.13155 32.0202 7.19811 32.8016 6.99971C33.7313 6.76356 42.1641 2.04419 42.1724 2.04675V6.07683Z" fill="#5E6A71"/>
<path fill-rule="evenodd" clip-rule="evenodd" d="M32.3916 13.3081L28.3793 4.40759H22.542L14.342 19.7202C14.349 19.7221 18.3768 19.5954 20.9581 17.6485C21.611 17.2645 23.4506 12.4274 25.1361 9.17431L27.759 15.7471C23.7946 17.7785 20.0297 19.5609 18.0021 20.1343C12.6526 21.6767 6.13692 22.6015 3.79663 20.5273C1.5951 18.5714 6.67851 10.3813 16.2929 8.55927C17.8518 8.21111 18.7617 8.30071 18.7617 8.31031C18.7617 8.30071 18.1024 5.50967 17.5896 4.92151C16.8728 4.04343 16.1701 3.86295 15.1234 3.99607C13.0421 4.12023 4.1886 6.48247 0.695433 13.8655C-1.25289 18.0601 1.33805 22.2969 3.01462 23.5231C3.79344 24.0933 8.82122 28.6047 20.4466 24.0434C31.9025 19.5954 42.1639 12.59 42.1722 12.59V7.90327C42.1678 7.89751 37.6439 10.4927 32.3916 13.3081Z" fill="#5E6A71"/>
</g>
</svg>
